<?xml version="1.0" encoding="UTF-8" standalone="no"?>
<!-- Created with Inkscape (http://www.inkscape.org/) -->

<svg
   version="1.1"
   id="svg1"
   width="180"
   height="60"
   viewBox="0 0 180 60"
   sodipodi:docname="Logo.svg"
   inkscape:version="1.3.2 (091e20e, 2023-11-25, custom)"
   inkscape:export-filename="v001.png"
   inkscape:export-xdpi="11.25"
   inkscape:export-ydpi="11.25"
   xml:space="preserve"
   xmlns:inkscape="http://www.inkscape.org/namespaces/inkscape"
   xmlns:sodipodi="http://sodipodi.sourceforge.net/DTD/sodipodi-0.dtd"
   xmlns="http://www.w3.org/2000/svg"
   xmlns:svg="http://www.w3.org/2000/svg"><defs
     id="defs1" /><sodipodi:namedview
     id="namedview1"
     pagecolor="#ffffff"
     bordercolor="#000000"
     borderopacity="0.25"
     inkscape:showpageshadow="2"
     inkscape:pageopacity="0.0"
     inkscape:pagecheckerboard="true"
     inkscape:deskcolor="#d1d1d1"
     inkscape:zoom="3.0195312"
     inkscape:cx="119.38939"
     inkscape:cy="31.627426"
     inkscape:window-width="1920"
     inkscape:window-height="1009"
     inkscape:window-x="-8"
     inkscape:window-y="-8"
     inkscape:window-maximized="1"
     inkscape:current-layer="svg1"
     showguides="true" /><path
     id="path1-8"
     style="display:none;opacity:0.9;fill:#008000;stroke-width:0.118888"
     inkscape:label="Triangle"
     d="m 146.14301,22.517468 c -0.73876,0.0064 -1.39887,0.619907 -1.50127,1.344052 -0.11677,0.753569 -0.0885,1.518272 -0.10821,2.278004 -0.0286,2.605266 -0.037,5.210746 -0.0331,7.816149 0.005,0.693307 0.003,1.387652 0.0392,2.079917 0.10519,0.832687 0.94326,1.490991 1.77724,1.394413 0.43689,-0.03752 0.80302,-0.299962 1.18387,-0.491102 1.79193,-0.981197 3.56188,-2.001795 5.33107,-3.023194 1.20643,-0.70283 2.41569,-1.401682 3.5997,-2.141871 0.35655,-0.231492 0.71853,-0.462697 1.02914,-0.754665 0.36212,-0.371511 0.54955,-0.930632 0.40405,-1.438738 -0.12211,-0.462283 -0.47697,-0.820277 -0.86849,-1.073413 -0.63367,-0.449979 -1.31053,-0.8339 -1.97403,-1.237226 -1.79262,-1.066454 -3.60433,-2.10009 -5.41917,-3.128114 -0.88943,-0.498186 -1.78068,-0.99473 -2.69345,-1.449019 -0.24076,-0.106501 -0.50121,-0.181557 -0.76656,-0.175193 z" /><g
     inkscape:groupmode="layer"
     id="layer1"
     inkscape:label="Flechas"
     style="display:none;fill:#008000"><path
       d="m 125.78336,46.122775 c -0.34991,-0.275242 -1.00935,-1.362297 -1.87122,-3.084664 -1.39925,-2.796237 -2.30493,-5.703966 -2.8175,-9.045793 -0.29148,-1.900552 -0.2921,-6.176822 -0.001,-8.084432 0.40012,-2.623206 1.15697,-5.325848 2.11239,-7.542938 0.25205,-0.584928 0.43974,-1.082026 0.41711,-1.104661 -0.0227,-0.02264 -0.3629,0.134306 -0.75613,0.348765 -0.71178,0.388146 -0.71698,0.388994 -1.14122,0.186685 -0.27701,-0.132109 -0.45406,-0.314292 -0.50583,-0.520563 -0.17259,-0.687703 0.0168,-0.867786 2.33433,-2.219481 2.33007,-1.35904 2.5617,-1.461954 3.02747,-1.345063 0.57387,0.144028 0.65606,0.547558 0.65606,3.22116 0,2.95429 -0.0971,3.269438 -1.00712,3.269438 -0.52418,0 -0.82477,-0.385213 -0.89478,-1.14669 l -0.064,-0.696086 -0.27634,0.594446 c -0.51739,1.113031 -1.43214,4.038083 -1.72888,5.528326 -1.3328,6.693231 -0.13358,13.76908 3.31223,19.543654 0.3624,0.607314 0.65891,1.190661 0.65891,1.296331 0,0.34694 -0.25874,0.769136 -0.55371,0.903537 -0.40418,0.184155 -0.55913,0.166613 -0.90055,-0.101967 z"
       style="opacity:0.9;fill:#008000;stroke-width:0.118888"
       id="path1-1"
       inkscape:label="1" /><path
       d="m 160.30021,6.6014654 c -0.3881,-0.4140798 -0.36777,-0.9933349 0.0475,-1.3504905 0.24666,-0.2121909 0.46321,-0.269321 1.04736,-0.2763084 l 0.73645,-0.0088 -0.77278,-0.3571847 c -1.94147,-0.8973608 -4.99131,-1.7625457 -7.54942,-2.1416332 -1.62215,-0.2403843 -5.97502,-0.2057627 -7.60889,0.060519 -3.43643,0.5600465 -6.798,1.7006886 -9.3922,3.1869374 -1.90525,1.0915272 -1.9062,1.0919227 -2.27822,0.9131062 -0.47387,-0.2277915 -0.71626,-0.7100464 -0.56839,-1.130759 0.14589,-0.4152004 0.83656,-0.8783891 2.8138,-1.8871288 2.90933,-1.4842425 6.03982,-2.4861943 9.30612,-2.97854191 2.00729,-0.30256888 6.22431,-0.30373661 8.20332,-0.002278 2.54635,0.38788641 5.55324,1.23636901 7.59745,2.14384671 0.38602,0.1713752 0.72511,0.2883455 0.75351,0.2599386 0.0285,-0.028409 -0.0868,-0.287926 -0.25605,-0.5767059 -0.37213,-0.6349849 -0.38483,-0.9090247 -0.0614,-1.3203533 0.29991,-0.38127254 1.03212,-0.43931745 1.32703,-0.1052008 0.44582,0.5050809 2.82544,4.4930318 2.82544,4.7350724 0,0.866546 -0.28027,0.9554774 -3.32889,1.0562536 l -2.5561,0.084496 z"
       style="opacity:0.9;fill:#008000;stroke-width:0.118888"
       id="path1-2"
       inkscape:label="2" /><path
       d="m 173.75032,46.277171 c -0.40488,-0.162896 -0.48382,-0.67616 -0.51677,-3.360105 l -0.0326,-2.65528 0.32716,-0.281404 c 0.41985,-0.361148 0.84303,-0.357508 1.21094,0.01042 0.25218,0.252151 0.29184,0.400834 0.29184,1.093775 0,0.503913 0.0417,0.759985 0.11233,0.689012 0.0618,-0.06211 0.32592,-0.64794 0.58694,-1.301828 3.23475,-8.103125 2.56006,-17.077492 -1.84202,-24.50141 -0.35231,-0.594184 -0.64059,-1.222811 -0.64059,-1.396943 0,-0.370386 0.34352,-0.754492 0.77063,-0.86169 0.63615,-0.159663 1.05953,0.364572 2.3859,2.954373 1.46821,2.86671 2.48533,6.040494 2.98085,9.301247 0.30306,1.994275 0.30306,6.20904 0,8.203318 -0.40489,2.664438 -1.5159,6.448933 -2.38865,8.136673 -0.10347,0.200128 -0.16082,0.363871 -0.1274,0.363871 0.0334,0 0.37204,-0.163169 0.75247,-0.362597 0.78235,-0.410099 1.16123,-0.366567 1.51548,0.174121 0.20947,0.319708 0.15614,0.909861 -0.10111,1.118723 -0.0776,0.06295 -1.12456,0.708646 -2.3268,1.434881 -2.06967,1.250241 -2.49347,1.427993 -2.95858,1.24085 z"
       style="opacity:0.91;fill:#008000;stroke-width:0.118888"
       id="path1-23"
       inkscape:label="3" /><path
       d="m 148.04311,59.359991 c -2.54889,-0.239377 -4.91779,-0.718071 -7.07384,-1.429454 -1.10209,-0.36362 -1.66475,-0.583268 -3.35607,-1.310079 -0.0803,-0.03452 0.0191,0.25748 0.22099,0.648889 0.33737,0.65414 0.35386,0.739067 0.20442,1.05093 -0.21342,0.445233 -0.71986,0.688969 -1.14549,0.551262 -0.25328,-0.08194 -0.59818,-0.563534 -1.60249,-2.237667 -1.35702,-2.262059 -1.46393,-2.497287 -1.34697,-2.963312 0.14521,-0.578543 0.53909,-0.656048 3.33415,-0.656048 2.40349,0 2.57672,0.01471 2.79979,0.237776 0.32303,0.323043 0.32201,1.075786 -10e-4,1.368887 -0.14788,0.133841 -0.49035,0.237647 -0.89464,0.271172 l -0.65499,0.05432 0.62713,0.290724 c 0.8421,0.390369 2.70632,1.033798 4.0489,1.397444 2.9287,0.793254 6.85882,1.086749 9.85869,0.736225 4.13269,-0.48289 7.88789,-1.722976 11.19707,-3.697648 0.60732,-0.362396 1.24077,-0.6589 1.40765,-0.6589 0.72129,0 1.14372,0.877768 0.69621,1.446681 -0.54158,0.68853 -4.09038,2.482488 -6.6298,3.351478 -1.72991,0.591964 -3.65867,1.055721 -5.52996,1.329643 -1.2093,0.177016 -5.12003,0.315233 -6.15888,0.217677 z"
       style="opacity:0.9;fill:#008000;stroke-width:0.118888"
       id="path1-85"
       inkscape:label="4" /></g><g
     inkscape:groupmode="layer"
     id="layer2"
     inkscape:label="Engranaje"
     style="display:none"><path
       d="m 146.49756,53.098446 c -0.16345,-0.08268 -0.35839,-0.282522 -0.43318,-0.44408 -0.0748,-0.161558 -0.33303,-1.63124 -0.57392,-3.265962 -0.2409,-1.634718 -0.46337,-3.079216 -0.49437,-3.209993 -0.0395,-0.166974 -0.32665,-0.343984 -0.96408,-0.594445 -0.49925,-0.196165 -1.02143,-0.403584 -1.1604,-0.460927 -0.21343,-0.08806 -0.65506,0.194706 -2.84338,1.820655 -1.4249,1.0587 -2.72599,1.976353 -2.89135,2.039229 -0.16538,0.06287 -0.41401,0.08017 -0.55248,0.03841 -0.1385,-0.04175 -1.4133,-1.229751 -2.8329,-2.640008 -2.65108,-2.633651 -2.87655,-2.937994 -2.5829,-3.486642 0.0782,-0.146304 0.99502,-1.416493 2.03717,-2.822643 1.15808,-1.562536 1.87208,-2.629064 1.8363,-2.742907 -0.0632,-0.201191 -0.8231,-2.057344 -0.87472,-2.136572 -0.0172,-0.02644 -1.40957,-0.253061 -3.09413,-0.503592 -3.80403,-0.565744 -3.6651,-0.534106 -3.95305,-0.900151 -0.22793,-0.289795 -0.2392,-0.476754 -0.2392,-3.967013 0,-3.65707 0,-3.663398 0.27509,-3.982693 0.2628,-0.305549 0.42468,-0.342305 3.63159,-0.824543 1.84609,-0.277603 3.36906,-0.52455 3.38444,-0.548768 0.0621,-0.09796 0.82115,-1.958849 0.86661,-2.124582 0.0269,-0.09809 -0.83463,-1.380123 -1.91447,-2.848976 -1.07986,-1.468856 -1.99372,-2.766228 -2.03079,-2.883049 -0.0371,-0.116827 -0.0319,-0.332785 0.0117,-0.47991 0.12425,-0.420383 5.15829,-5.418109 5.54247,-5.502492 0.17873,-0.03926 0.44853,-0.0069 0.59946,0.07197 0.20934,0.109323 4.46969,3.18812 5.29423,3.82594 0.0973,0.07528 0.50973,-0.03627 1.24834,-0.337635 0.60665,-0.247522 1.11544,-0.456987 1.13063,-0.46548 0.0152,-0.0085 0.26506,-1.535743 0.55523,-3.393903 0.4986,-3.1930341 0.54475,-3.3932659 0.84095,-3.6480084 0.31103,-0.267545 0.34048,-0.2695383 3.98561,-0.2695383 h 3.6723 l 0.3242,0.2788646 c 0.31069,0.2672364 0.34571,0.4193172 0.83963,3.6466831 0.28348,1.852297 0.52843,3.375357 0.54438,3.384576 0.0159,0.0092 0.52287,0.218279 1.12654,0.464576 l 1.09765,0.447808 0.38849,-0.274363 c 0.21367,-0.150898 1.3816,-1.003975 2.59541,-1.895732 2.5728,-1.890148 2.63866,-1.929594 3.0659,-1.835754 0.43185,0.09485 5.44218,5.106445 5.54947,5.550863 0.10164,0.420899 0.0607,0.487906 -2.02214,3.314575 -0.99176,1.345927 -1.84348,2.512306 -1.89269,2.591957 -0.0648,0.104717 0.51417,1.776595 0.8182,2.362919 0.008,0.01394 1.53072,0.2594 3.38553,0.545483 3.22555,0.497504 3.65031,0.843237 3.65031,0.843237 l 0.27791,0.323091 v 3.662888 c 0,3.473131 -0.0121,3.67842 -0.2359,3.962779 -0.29277,0.372199 -0.13782,0.335961 -3.91597,0.915823 -1.72771,0.265167 -3.14682,0.495197 -3.15357,0.511178 -0.27974,0.661698 -0.81259,1.98034 -0.85568,2.117548 -0.0358,0.113843 0.67823,1.180371 1.8363,2.742907 1.04218,1.40615 1.95888,2.676339 2.03718,2.822643 0.0783,0.146301 0.10991,0.413725 0.0703,0.594269 -0.095,0.432366 -5.10131,5.433514 -5.55013,5.544406 -0.17375,0.04293 -0.43369,0.015 -0.57764,-0.06205 -0.14396,-0.07705 -1.41725,-0.998647 -2.82957,-2.047998 -2.36645,-1.758312 -2.5915,-1.898167 -2.87014,-1.783674 -0.16631,0.06833 -0.67684,0.27382 -1.13455,0.45665 -0.45775,0.182831 -0.85293,0.346886 -0.87825,0.364568 -0.0254,0.01769 -0.27459,1.543728 -0.554,3.39121 -0.4823,3.189198 -0.52391,3.37274 -0.82257,3.629637 -0.31233,0.268684 -0.3397,0.270566 -3.90429,0.268828 -2.6549,-0.0013 -3.66718,-0.0409 -3.887,-0.152093 z m 5.16091,-10.074993 c 7.24868,-0.830417 12.55661,-7.267286 11.84688,-14.366573 -0.18545,-1.854781 -0.52847,-3.057789 -1.33954,-4.697332 -1.01845,-2.058813 -2.61265,-3.879761 -4.49198,-5.130889 -3.7962,-2.527233 -8.37863,-2.951381 -12.64016,-1.169971 -2.95384,1.234772 -5.6694,3.95032 -6.90419,6.904169 -1.78138,4.261531 -1.35727,8.843971 1.16997,12.64017 2.13502,3.207048 5.76131,5.413089 9.56005,5.81587 1.31169,0.13908 1.62036,0.139578 2.79897,0.0046 z"
       style="opacity:0.9;fill:#000080;stroke-width:0.118888"
       id="path1"
       inkscape:label="1" /></g><text
     xml:space="preserve"
     style="font-size:48.2259px;opacity:0.9;fill:#000080;stroke-width:0.251175"
     x="0.18457781"
     y="34.674881"
     id="text1"
     transform="scale(0.61338825,1.6302888)"><tspan
       sodipodi:role="line"
       x="0.18457781"
       y="34.674881"
       style="font-style:normal;font-variant:normal;font-weight:normal;font-stretch:normal;font-size:48.2259px;font-family:Cambria;-inkscape-font-specification:Cambria;stroke-width:0.251175"
       id="tspan1">Mecánica</tspan></text><text
     xml:space="preserve"
     style="font-style:normal;font-variant:normal;font-weight:normal;font-stretch:normal;font-size:26.342px;line-height:0;font-family:Cambria;-inkscape-font-specification:Cambria;opacity:0.9;fill:#000080;stroke-width:0.137197"
     x="0.35650119"
     y="45.233055"
     id="text3"
     transform="scale(0.85444612,1.1703488)"><tspan
       sodipodi:role="line"
       id="tspan3"
       x="0.35650119"
       y="45.233055"
       style="stroke-width:0.137197" /></text><g
     style="fill:#008000"
     id="g1"
     transform="matrix(0.08249605,0,0,0.08249605,111.08753,69.735232)"><path
       d="M 686,-132 444,-376 q -20,8 -40.5,12 -20.5,4 -43.5,4 -100,0 -170,-70 -70,-70 -70,-170 0,-36 10,-68.5 10,-32.5 28,-61.5 l 146,146 72,-72 -146,-146 q 29,-18 61.5,-28 32.5,-10 68.5,-10 100,0 170,70 70,70 70,170 0,23 -4,43.5 -4,20.5 -12,40.5 l 244,242 q 12,12 12,29 0,17 -12,29 l -84,84 q -12,12 -29,12 -17,0 -29,-12 z m 29,-85 27,-27 -256,-256 q 18,-20 26,-46.5 8,-26.5 8,-53.5 0,-60 -38.5,-104.5 Q 443,-749 386,-758 l 74,74 q 12,12 12,28 0,16 -12,28 l -128,128 q -12,12 -28,12 -16,0 -28,-12 l -74,-74 q 9,57 53.5,95.5 44.5,38.5 104.5,38.5 26,0 52,-8 26,-8 47,-25 z M 472,-488 Z"
       id="path1-9"
       style="fill:#008000" /></g></svg>
